#!OML:ASF F:\VICON\USERDATA\INSTALL\rory3\rory3.ASF
:FULLY-SPECIFIED
:DEGREES
707
root 2.13632 33.7017 -5.18844 -169.612 -11.5666 178.427
lowerback 3.14734 -0.883241 -3.61124
upperback -1.41117 -1.32412 0.694722
thorax -3.12222 -0.580278 2.81801
lowerneck -22.9444 -1.46388 -14.7298
upperneck 32.0353 1.06875 3.46874
head 14.951 -1.4303 4.01813
rclavicle -3.50606e-014 2.68359e-015
rhumerus -24.0313 33.8511 -91.7991
rradius 96.2896
rwrist 57.424
rhand 52.9409 -22.3877
rfingers 7.12502
rthumb 71.7464 -11.5553
lclavicle -3.50606e-014 2.68359e-015
lhumerus -37.0841 -14.419 94.2055
lradius 85.9181
lwrist -25.9342
lhand -53.4063 42.7509
lfingers 7.12502
lthumb -25.8549 71.0134
rfemur -18.9109 3.42215 21.4372
rtibia 32.5522
rfoot -13.87 -1.05216
rtoes 10.6647
lfemur -18.4501 5.27308 -25.5656
ltibia 28.8522
lfoot -8.67969 11.4955
ltoes -18.0737
708
root 2.14747 33.7042 -5.18839 -169.705 -11.9918 178.315
lowerback 3.34935 -1.05108 -3.69574
upperback -1.38177 -1.55456 0.815162
thorax -3.18325 -0.690769 3.00707
lowerneck -23.1794 -1.45516 -14.9584
upperneck 32.2224 1.21656 3.44533
head 15.0751 -1.41941 4.07984
rclavicle 3.15571e-015 5.96354e-016
rhumerus -24.115 34.0497 -91.7942
rradius 96.0064
rwrist 57.3669
rhand 51.8842 -22.364
rfingers 7.12502
rthumb 71.1334 -14.0956
lclavicle 3.15571e-015 5.96354e-016
lhumerus -37.4156 -14.7969 94.6409
lradius 87.5009
lwrist -28.2759
lhand -53.0098 44.804
lfingers 7.12502
lthumb -25.4751 73.1212
rfemur -18.6511 3.28194 21.3878
rtibia 32.4339
rfoot -13.993 -1.16361
rtoes 11.2501
lfemur -18.1944 4.74582 -25.5265
ltibia 28.698
lfoot -8.69567 11.4524
ltoes -16.3735
709
root 2.15537 33.7114 -5.2001 -169.576 -12.1556 178.37
lowerback 3.08265 -1.06252 -3.56303
upperback -1.36659 -1.5514 0.904165
thorax -3.01811 -0.695058 3.0173
lowerneck -23.0616 -1.46467 -14.9518
upperneck 32.2259 1.20708 3.31604
head 15.0556 -1.44652 4.01904
rclavicle 1.0635e-014 1.03368e-014
rhumerus -24.1307 33.9535 -91.8111
rradius 95.8165
rwrist 57.4771
rhand 51.2047 -22.3295
rfingers 7.12502
rthumb 70.7196 -15.6201
lclavicle 1.0635e-014 1.03368e-014
lhumerus -37.4986 -15.3949 94.9066
lradius 88.7674
lwrist -29.9381
lhand -53.1719 42.9506
lfingers 7.12502
lthumb -25.6304 71.2456
rfemur -18.6696 3.23841 21.4675
rtibia 32.2827
rfoot -13.9692 -1.11172
rtoes 11.8205
lfemur -18.2575 4.6076 -25.4004
ltibia 28.6343
lfoot -8.75829 11.3799
ltoes -15.6165
710
root 2.15116 33.7193 -5.23535 -169.283 -11.6499 178.586
lowerback 2.18874 -0.832843 -3.29127
upperback -1.30595 -1.20323 0.958989
thorax -2.48263 -0.538686 2.88408
lowerneck -22.8404 -1.49357 -14.8935
upperneck 32.1713 1.13198 3.17482
head 14.9939 -1.49122 3.93018
rclavicle -1.48095e-014 2.06736e-014
rhumerus -24.1207 33.737 -91.8507
rradius 95.7057
rwrist 57.6831
rhand 50.7496 -22.2982
rfingers 7.12502
rthumb 70.4344 -16.5947
lclavicle -1.48095e-014 2.06736e-014
lhumerus -37.4272 -16.0617 95.1421
lradius 89.7695
lwrist -30.9621
lhand -53.6041 38.0696
lfingers 7.12502
lthumb -26.0443 66.3044
rfemur -18.8966 3.42489 21.5947
rtibia 32.1314
rfoot -13.72 -0.657018
rtoes 11.7648
lfemur -18.481 5.0402 -25.2542
ltibia 28.6043
lfoot -8.81691 11.5052
ltoes -16.0283
711
root 2.15953 33.7171 -5.24917 -169.299 -11.6464 178.708
lowerback 1.98292 -0.778473 -3.17159
upperback -1.2412 -1.11806 1.03357
thorax -2.30692 -0.501883 2.88573
lowerneck -22.7627 -1.51276 -14.899
upperneck 32.2017 1.10439 3.0976
head 14.9964 -1.52095 3.892
rclavicle -1.26228e-014 -1.64991e-014
rhumerus -24.0873 33.6125 -91.8816
rradius 95.7108
rwrist 57.8574
rhand 50.4962 -22.268
rfingers 7.12502
rthumb 70.273 -17.1117
lclavicle -1.26228e-014 -1.64991e-014
lhumerus -37.3881 -16.7367 95.4268
lradius 90.8744
lwrist -32.0412
lhand -52.8267 30.2881
lfingers 7.12502
lthumb -25.2997 58.6303
rfemur -18.7709 3.44215 21.7565
rtibia 31.9901
rfoot -13.6503 -0.475637
rtoes 12.0781
lfemur -18.4724 5.26898 -25.0942
ltibia 28.5987
lfoot -8.71804 11.3834
ltoes -16.3872
712
root 2.17345 33.7153 -5.25097 -169.516 -11.9595 178.603
lowerback 2.27848 -0.803878 -3.27258
upperback -1.20421 -1.16255 1.0438
thorax -2.42989 -0.51992 2.95992
lowerneck -22.6035 -1.51776 -14.7833
upperneck 32.2517 1.03771 2.98434
head 14.9938 -1.56085 3.81045
rclavicle 1.30701e-014 -8.74653e-015
rhumerus -24.1145 33.3306 -91.977
rradius 95.7405
rwrist 58.0701
rhand 50.2913 -22.169
rfingers 7.12502
rthumb 70.1412 -17.4484
lclavicle 1.30701e-014 -8.74653e-015
lhumerus -37.3652 -17.7534 95.7758
lradius 92.1357
lwrist -32.8849
lhand -53.0858 31.5483
lfingers 7.12502
lthumb -25.5479 59.8552
rfemur -18.3852 3.38714 21.7399
rtibia 31.8697
rfoot -13.7436 -0.550332
rtoes 12.6805
lfemur -18.2489 5.21938 -25.1066
ltibia 28.6265
lfoot -8.57786 11.1879
ltoes -16.7023
713
root 2.18761 33.7181 -5.24408 -169.67 -12.5777 178.578
lowerback 2.62607 -0.889065 -3.1867
upperback -1.21796 -1.28348 1.05413
thorax -2.63213 -0.577194 2.93465
lowerneck -22.385 -1.54306 -14.5745
upperneck 32.2818 0.902375 2.8427
head 14.9762 -1.61997 3.688
rclavicle -1.82882e-014 2.78299e-015
rhumerus -24.1775 32.9776 -92.1188
rradius 95.5874
rwrist 58.2337
rhand 49.8364 -22.13
rfingers 7.12502
rthumb 69.8442 -18.3557
lclavicle -1.82882e-014 2.78299e-015
lhumerus -37.3077 -18.8476 96.0087
lradius 93.2663
lwrist -33.9398
lhand -52.6791 31.5643
lfingers 7.12502
lthumb -25.1584 59.9264
rfemur -18.1307 3.25308 21.8191
rtibia 31.8052
rfoot -13.9138 -0.838087
rtoes 12.7135
lfemur -18.1229 4.914 -25.0325
ltibia 28.6034
lfoot -8.35045 10.9804
ltoes -17.4456
714
root 2.2045 33.724 -5.22222 -169.648 -13.6835 178.638
lowerback 3.00103 -1.21064 -2.88479
upperback -1.32029 -1.71018 1.1861
thorax -2.92169 -0.787961 2.93248
lowerneck -22.4296 -1.55217 -14.6374
upperneck 32.4092 0.928981 2.7743
head 15.045 -1.64198 3.67588
rclavicle 4.07509e-015 -6.16232e-015
rhumerus -24.2037 32.8625 -92.1737
rradius 95.5224
rwrist 58.397
rhand 49.4674 -22.0311
rfingers 7.12502
rthumb 69.5992 -19.0038
lclavicle 4.07509e-015 -6.16232e-015
lhumerus -37.1676 -19.5882 96.2035
lradius 94.1435
lwrist -34.3008
lhand -53.1897 28.9495
lfingers 7.12502
lthumb -25.6474 57.2421
rfemur -18.1583 2.91211 22.0173
rtibia 31.7453
rfoot -14.1603 -1.35461
rtoes 12.1279
lfemur -18.289 3.96031 -24.8279
ltibia 28.5471
lfoot -7.9531 10.9436
ltoes -18.49
715
root 2.20905 33.7289 -5.2455 -169.748 -13.3629 178.476
lowerback 2.80561 -1.03281 -3.02845
upperback -1.23846 -1.47412 1.0821
thorax -2.74322 -0.67246 2.88774
lowerneck -22.4269 -1.58983 -14.5467
upperneck 32.5629 0.833194 2.73017
head 15.1271 -1.69347 3.62646
rclavicle -2.20154e-014 -8.94531e-015
rhumerus -24.3498 32.4955 -92.3498
rradius 95.5486
rwrist 58.5948
rhand 49.1418 -21.9287
rfingers 7.12502
rthumb 69.3801 -19.5452
lclavicle -2.20154e-014 -8.94531e-015
lhumerus -37.0378 -20.5776 96.3879
lradius 95.2313
lwrist -35.5863
lhand -53.0363 32.9167
lfingers 7.12502
lthumb -25.5005 61.2303
rfemur -17.9288 3.07364 21.8354
rtibia 31.6764
rfoot -14.0939 -1.20338
rtoes 11.2084
lfemur -18.017 4.567 -25.0404
ltibia 28.4552
lfoot -7.92326 10.8103
ltoes -20.1493
